<?xml version="1.0" encoding="UTF-8"?>
<!DOCTYPE svg PUBLIC "-//W3C//DTD SVG 1.1//EN" "http://www.w3.org/Graphics/SVG/1.1/DTD/svg11.dtd">
<svg xmlns="http://www.w3.org/2000/svg" version="1.1" width="1080px" height="398px" style="shape-rendering:geometricPrecision; text-rendering:geometricPrecision; image-rendering:optimizeQuality; fill-rule:evenodd; clip-rule:evenodd" xmlns:xlink="http://www.w3.org/1999/xlink">
<g><path style="opacity:0.851" fill="#fefffe" d="M 877.5,-0.5 C 879.5,-0.5 881.5,-0.5 883.5,-0.5C 871.602,3.0827 859.935,7.5827 848.5,13C 838.732,18.2721 830.732,25.4387 824.5,34.5C 827.81,38.978 831.31,43.3114 835,47.5C 838.213,57.0049 835.046,59.8382 825.5,56C 822.397,54.5606 819.564,52.7272 817,50.5C 812.204,56.1376 806.371,60.1376 799.5,62.5C 798.228,62.4302 797.062,62.0968 796,61.5C 795.333,59.1667 795.333,56.8333 796,54.5C 797.863,49.476 800.363,44.8094 803.5,40.5C 792.935,32.9238 781.101,29.2571 768,29.5C 755.669,29.9789 743.502,31.6455 731.5,34.5C 729.627,34.5177 729.294,34.0177 730.5,33C 756.865,22.7925 783.532,21.9591 810.5,30.5C 829.743,13.3771 852.076,3.0438 877.5,-0.5 Z"/></g>
<g><path style="opacity:0.953" fill="#fefffe" d="M 506.5,73.5 C 526.5,73.5 546.5,73.5 566.5,73.5C 566.5,79.8333 566.5,86.1667 566.5,92.5C 559.833,92.5 553.167,92.5 546.5,92.5C 546.5,113.167 546.5,133.833 546.5,154.5C 539.833,154.5 533.167,154.5 526.5,154.5C 526.5,133.833 526.5,113.167 526.5,92.5C 519.833,92.5 513.167,92.5 506.5,92.5C 506.5,86.1667 506.5,79.8333 506.5,73.5 Z"/></g>
<g><path style="opacity:0.949" fill="#fefffe" d="M 591.5,73.5 C 596.875,73.1718 602.208,73.5052 607.5,74.5C 616.97,100.91 626.637,127.243 636.5,153.5C 629.197,154.497 621.863,154.831 614.5,154.5C 613.5,150.5 612.5,146.5 611.5,142.5C 603.472,142.169 595.472,142.502 587.5,143.5C 586.26,147.056 584.927,150.556 583.5,154C 576.508,154.5 569.508,154.666 562.5,154.5C 571.574,127.279 581.24,100.279 591.5,73.5 Z M 599.5,107.5 C 601.867,112.928 603.867,118.595 605.5,124.5C 601.5,125.833 597.5,125.833 593.5,124.5C 595.509,118.805 597.509,113.138 599.5,107.5 Z"/></g>
<g><path style="opacity:0.93" fill="#fefffe" d="M 643.5,73.5 C 650.5,73.5 657.5,73.5 664.5,73.5C 664.334,82.1731 664.5,90.8397 665,99.5C 672.167,91 679.333,82.5 686.5,74C 694.853,73.1683 703.187,73.3349 711.5,74.5C 702.312,85.1874 693.312,96.0207 684.5,107C 693.833,122.667 703.167,138.333 712.5,154C 704.147,154.832 695.813,154.665 687.5,153.5C 681.833,143.5 676.167,133.5 670.5,123.5C 668.517,124.982 666.684,126.649 665,128.5C 664.5,137.16 664.334,145.827 664.5,154.5C 657.5,154.5 650.5,154.5 643.5,154.5C 643.5,127.5 643.5,100.5 643.5,73.5 Z"/></g>
<g><path style="opacity:0.93" fill="#fefffe" d="M 736.5,73.5 C 746.452,72.6961 756.118,73.8628 765.5,77C 768.19,78.6977 770.523,80.6977 772.5,83C 769.215,87.288 765.548,91.288 761.5,95C 758.534,94.3744 755.534,93.3744 752.5,92C 746.877,90.7241 741.71,91.5575 737,94.5C 734.791,98.2071 735.624,101.04 739.5,103C 745.13,104.185 750.797,105.185 756.5,106C 768.847,108.823 774.847,116.656 774.5,129.5C 773.237,144.265 765.237,152.765 750.5,155C 739.782,156.43 729.448,155.097 719.5,151C 716.664,148.993 713.997,146.826 711.5,144.5C 715.53,139.636 720.03,135.302 725,131.5C 732.659,136.389 740.825,137.889 749.5,136C 753.51,133.675 754.51,130.341 752.5,126C 744.218,123.896 735.884,121.896 727.5,120C 719.394,115.467 715.394,108.467 715.5,99C 716.173,85.17 723.173,76.67 736.5,73.5 Z"/></g>
<g><path style="opacity:0.952" fill="#fefffe" d="M 786.5,73.5 C 793.167,73.5 799.833,73.5 806.5,73.5C 806.5,83.8333 806.5,94.1667 806.5,104.5C 813.167,104.5 819.833,104.5 826.5,104.5C 826.5,94.1667 826.5,83.8333 826.5,73.5C 833.5,73.5 840.5,73.5 847.5,73.5C 847.5,100.5 847.5,127.5 847.5,154.5C 840.5,154.5 833.5,154.5 826.5,154.5C 826.5,144.167 826.5,133.833 826.5,123.5C 819.833,123.5 813.167,123.5 806.5,123.5C 806.5,133.833 806.5,144.167 806.5,154.5C 799.833,154.5 793.167,154.5 786.5,154.5C 786.5,127.5 786.5,100.5 786.5,73.5 Z"/></g>
<g><path style="opacity:0.921" fill="#fefffe" d="M 142.5,138.5 C 263.167,138.5 383.833,138.5 504.5,138.5C 504.5,144.167 504.5,149.833 504.5,155.5C 383.833,155.5 263.167,155.5 142.5,155.5C 142.5,149.833 142.5,144.167 142.5,138.5 Z"/></g>
<g><path style="opacity:0.957" fill="#fefffe" d="M 337.5,187.5 C 346.02,186.05 353.52,188.05 360,193.5C 386.413,230.658 412.58,267.992 438.5,305.5C 393.833,306.833 349.167,306.833 304.5,305.5C 310.975,296.525 317.641,287.692 324.5,279C 342.509,278.833 360.509,278.333 378.5,277.5C 366.473,261.307 354.64,244.973 343,228.5C 324.533,254.599 305.7,280.433 286.5,306C 272.167,306.667 257.833,306.667 243.5,306C 271.366,269.101 298.866,231.934 326,194.5C 329.263,191.037 333.097,188.704 337.5,187.5 Z"/></g>
<g><path style="opacity:0.964" fill="#fefffe" d="M 632.5,187.5 C 642.218,185.684 650.384,188.351 657,195.5C 677.667,224.833 698.333,254.167 719,283.5C 730.683,271.317 742.183,258.984 753.5,246.5C 735.349,227.182 717.016,208.015 698.5,189C 713.167,188.333 727.833,188.333 742.5,189C 753.379,200.38 764.712,211.214 776.5,221.5C 788.288,211.214 799.621,200.38 810.5,189C 828.833,188.333 847.167,188.333 865.5,189C 879.313,204.646 893.646,219.813 908.5,234.5C 923.171,219.662 937.505,204.495 951.5,189C 966.167,188.333 980.833,188.333 995.5,189C 973.038,215.13 950.205,240.964 927,266.5C 926.5,279.829 926.333,293.163 926.5,306.5C 913.833,306.5 901.167,306.5 888.5,306.5C 888.667,292.829 888.5,279.163 888,265.5C 871.372,245.87 854.372,226.537 837,207.5C 823.954,220.045 811.454,233.045 799.5,246.5C 818.065,265.976 836.399,285.643 854.5,305.5C 839.178,306.666 823.844,306.833 808.5,306C 798.356,294.023 787.69,282.523 776.5,271.5C 765.31,282.523 754.644,294.023 744.5,306C 696.167,306.667 647.833,306.667 599.5,306C 606.167,297 612.833,288 619.5,279C 637.833,278.667 656.167,278.333 674.5,278C 662.61,261.706 650.61,245.539 638.5,229.5C 619.479,254.528 600.812,279.862 582.5,305.5C 536.838,306.5 491.172,306.833 445.5,306.5C 445.5,267.167 445.5,227.833 445.5,188.5C 457.167,188.5 468.833,188.5 480.5,188.5C 480.5,218.167 480.5,247.833 480.5,277.5C 507.169,277.667 533.835,277.5 560.5,277C 581,249.167 601.5,221.333 622,193.5C 625.351,191.079 628.851,189.079 632.5,187.5 Z"/></g>
<g><path style="opacity:0.963" fill="#fefffe" d="M 132.5,188.5 C 185.501,188.333 238.501,188.5 291.5,189C 285.697,198.302 279.697,207.468 273.5,216.5C 229.837,217.333 186.17,217.833 142.5,218C 123.714,226.405 116.881,240.572 122,260.5C 126.444,269.809 133.611,275.976 143.5,279C 158.833,279.667 174.167,279.667 189.5,279C 192.375,274.083 195.375,269.249 198.5,264.5C 183.5,263.833 168.5,263.167 153.5,262.5C 147.575,254.32 141.409,246.32 135,238.5C 134.517,237.552 134.351,236.552 134.5,235.5C 176.833,235.5 219.167,235.5 261.5,235.5C 261.649,236.552 261.483,237.552 261,238.5C 244.378,260.911 227.878,283.411 211.5,306C 185.5,306.667 159.5,306.667 133.5,306C 98.2976,299.46 81.7976,278.293 84,242.5C 87.3929,212.944 103.56,194.944 132.5,188.5 Z"/></g>
<g><path style="opacity:0.921" fill="#fefffe" d="M 774.5,397.5 C 768.5,397.5 762.5,397.5 756.5,397.5C 756.667,384.163 756.5,370.829 756,357.5C 752.184,370.766 748.684,384.099 745.5,397.5C 739.167,397.5 732.833,397.5 726.5,397.5C 723.315,383.774 719.815,370.108 716,356.5C 715.5,370.163 715.333,383.829 715.5,397.5C 709.5,397.5 703.5,397.5 697.5,397.5C 697.5,376.167 697.5,354.833 697.5,333.5C 706.418,333.183 715.251,333.516 724,334.5C 728.156,348.789 732.156,363.122 736,377.5C 740.012,363.116 744.179,348.782 748.5,334.5C 757.141,333.502 765.808,333.169 774.5,333.5C 774.5,354.833 774.5,376.167 774.5,397.5 Z"/></g>
<g><path style="opacity:0.933" fill="#fefffe" d="M 844.5,397.5 C 838.167,397.5 831.833,397.5 825.5,397.5C 824.506,394.196 823.506,390.863 822.5,387.5C 816.167,386.167 809.833,386.167 803.5,387.5C 802.494,390.863 801.494,394.196 800.5,397.5C 794.167,397.5 787.833,397.5 781.5,397.5C 787.022,376.764 792.855,356.098 799,335.5C 803.414,334.199 808.081,333.532 813,333.5C 817.747,333.513 822.414,333.847 827,334.5C 832.993,355.475 838.827,376.475 844.5,397.5 Z M 812.5,347.5 C 815.138,355.487 817.471,363.654 819.5,372C 815.167,372.667 810.833,372.667 806.5,372C 809.046,363.983 811.046,355.816 812.5,347.5 Z"/></g>
<g><path style="opacity:0.929" fill="#fefffe" d="M 898.5,397.5 C 882.833,397.5 867.167,397.5 851.5,397.5C 851.5,376.167 851.5,354.833 851.5,333.5C 857.5,333.5 863.5,333.5 869.5,333.5C 869.5,349.5 869.5,365.5 869.5,381.5C 879.167,381.5 888.833,381.5 898.5,381.5C 898.5,386.833 898.5,392.167 898.5,397.5 Z"/></g>
<g><path style="opacity:0.902" fill="#fefffe" d="M 951.5,397.5 C 935.833,397.5 920.167,397.5 904.5,397.5C 904.5,376.167 904.5,354.833 904.5,333.5C 910.833,333.5 917.167,333.5 923.5,333.5C 923.5,349.5 923.5,365.5 923.5,381.5C 932.833,381.5 942.167,381.5 951.5,381.5C 951.5,386.833 951.5,392.167 951.5,397.5 Z"/></g>
</svg>
